<svg xmlns="http://www.w3.org/2000/svg" xmlns:xlink="http://www.w3.org/1999/xlink" version="1.1" width="24" height="24" viewBox="0 0 256 256" xml:space="preserve">

<defs>
</defs>
<g style="stroke: none; stroke-width: 0; stroke-dasharray: none; stroke-linecap: butt; stroke-linejoin: miter; stroke-miterlimit: 10; fill: none; fill-rule: nonzero; opacity: 1;" transform="translate(1.4065934065934016 1.4065934065934016) scale(2.81 2.81)" >
	<path d="M 82.751 46.173 l -7.743 -22.704 c -0.093 -0.273 -0.299 -0.492 -0.565 -0.602 l -28.26 -11.628 V 8.677 c 1.944 -0.454 3.396 -2.201 3.396 -4.281 C 49.579 1.972 47.606 0 45.183 0 c -1.302 0 -2.529 0.572 -3.367 1.57 c -0.355 0.423 -0.3 1.054 0.123 1.409 c 0.422 0.356 1.054 0.3 1.409 -0.123 C 43.804 2.312 44.473 2 45.183 2 c 1.321 0 2.396 1.075 2.396 2.396 s -1.075 2.396 -2.396 2.396 c -0.552 0 -1 0.448 -1 1 v 3.297 L 15.558 22.867 c -0.267 0.11 -0.473 0.329 -0.566 0.602 L 7.249 46.173 c -0.087 0.255 -0.068 0.533 0.053 0.773 s 0.334 0.421 0.59 0.503 l 12.295 3.908 V 89 c 0 0.553 0.448 1 1 1 h 47.626 c 0.553 0 1 -0.447 1 -1 V 51.357 l 12.294 -3.908 c 0.257 -0.082 0.469 -0.263 0.59 -0.503 S 82.838 46.428 82.751 46.173 z M 33.871 17.494 L 45 12.915 l 11.276 4.64 C 49.364 23.098 42.007 23.077 33.871 17.494 z M 57.001 19.537 C 55.935 26.07 50.286 29.072 45 29.072 c -5.347 0 -11.067 -3.074 -12.036 -9.767 C 41.539 25.085 49.606 25.164 57.001 19.537 z M 69.813 49.259 v -7.581 c 0 -0.552 -0.447 -1 -1 -1 s -1 0.448 -1 1 v 8.948 V 88 H 22.187 V 50.626 v -8.948 c 0 -0.552 -0.448 -1 -1 -1 s -1 0.448 -1 1 v 7.581 L 9.471 45.853 l 7.268 -21.309 l 14.155 -5.824 C 31.619 26.833 38.345 31.072 45 31.072 c 6.656 0 13.381 -4.239 14.107 -12.353 l 14.155 5.824 l 7.267 21.309 L 69.813 49.259 z" style="stroke: none; stroke-width: 1; stroke-dasharray: none; stroke-linecap: butt; stroke-linejoin: miter; stroke-miterlimit: 10; fill: rgb(255,255,255); fill-rule: nonzero; opacity: 1;" transform=" matrix(1 0 0 1 0 0) " stroke-linecap="round" />
</g>
</svg>