<svg xmlns="http://www.w3.org/2000/svg" xmlns:xlink="http://www.w3.org/1999/xlink" version="1.1" width="24" height="24" viewBox="0 0 256 256" xml:space="preserve">

<defs>
</defs>
<g style="stroke: none; stroke-width: 0; stroke-dasharray: none; stroke-linecap: butt; stroke-linejoin: miter; stroke-miterlimit: 10; fill: none; fill-rule: nonzero; opacity: 1;" transform="translate(1.4065934065934016 1.4065934065934016) scale(2.81 2.81)" >
	<path d="M 45 34.22 c -0.254 0 -0.508 -0.096 -0.702 -0.288 L 32.334 22.129 c -0.19 -0.188 -0.298 -0.444 -0.298 -0.712 v -4.196 c 0 -0.552 0.448 -1 1 -1 h 4.393 V 3.708 c 0 -0.552 0.448 -1 1 -1 s 1 0.448 1 1 v 13.513 c 0 0.552 -0.448 1 -1 1 h -4.393 v 2.778 L 45 31.815 l 10.913 -10.767 v -2.828 h -4.342 c -0.553 0 -1 -0.448 -1 -1 V 3.708 c 0 -0.552 0.447 -1 1 -1 s 1 0.448 1 1 v 12.513 h 4.342 c 0.553 0 1 0.448 1 1 v 3.967 c 0.084 0.335 0.004 0.693 -0.247 0.941 L 45.702 33.932 C 45.508 34.124 45.254 34.22 45 34.22 z" style="stroke: none; stroke-width: 1; stroke-dasharray: none; stroke-linecap: butt; stroke-linejoin: miter; stroke-miterlimit: 10; fill: rgb(255,255,255); fill-rule: nonzero; opacity: 1;" transform=" matrix(1 0 0 1 0 0) " stroke-linecap="round" />
	<path d="M 89.779 41.109 l -9.854 -12.253 c -0.018 -0.023 -0.044 -0.037 -0.064 -0.058 c -0.042 -0.044 -0.086 -0.086 -0.136 -0.122 c -0.038 -0.027 -0.077 -0.048 -0.118 -0.07 c -0.03 -0.016 -0.055 -0.038 -0.086 -0.051 l -12.248 -4.948 c -0.512 -0.204 -1.095 0.041 -1.302 0.553 c -0.207 0.512 0.04 1.095 0.552 1.302 l 9.953 4.02 l -19.191 7.753 L 45 42.199 L 13.523 29.482 l 9.953 -4.021 c 0.512 -0.207 0.76 -0.79 0.553 -1.302 c -0.207 -0.512 -0.789 -0.757 -1.302 -0.553 l -12.248 4.948 c -0.031 0.012 -0.055 0.034 -0.084 0.049 c -0.043 0.022 -0.083 0.044 -0.123 0.073 c -0.049 0.035 -0.091 0.076 -0.132 0.119 c -0.021 0.022 -0.047 0.036 -0.066 0.06 L 0.221 41.109 c -0.198 0.247 -0.268 0.572 -0.188 0.878 s 0.3 0.557 0.593 0.675 l 9.228 3.728 v 26.106 c 0 0.407 0.248 0.774 0.625 0.927 l 34.146 13.795 c 0.011 0.005 0.024 0.003 0.035 0.007 c 0.11 0.04 0.223 0.066 0.34 0.066 s 0.23 -0.026 0.34 -0.066 c 0.011 -0.004 0.024 -0.002 0.035 -0.007 l 34.147 -13.795 c 0.378 -0.152 0.625 -0.52 0.625 -0.927 V 46.391 l 9.229 -3.728 c 0.293 -0.119 0.513 -0.369 0.593 -0.675 S 89.978 41.356 89.779 41.109 z M 11.167 30.688 L 43.377 43.7 l -8.544 10.625 l -23.604 -9.536 c -0.001 0 -0.001 0 -0.002 0 l -8.603 -3.476 L 11.167 30.688 z M 11.854 47.199 l 22.918 9.258 c 0.114 0.047 0.233 0.066 0.351 0.069 c 0.008 0 0.015 0.005 0.023 0.005 c 0.018 0 0.035 -0.011 0.053 -0.012 c 0.11 -0.006 0.216 -0.03 0.318 -0.071 c 0.032 -0.013 0.062 -0.024 0.092 -0.041 c 0.118 -0.063 0.229 -0.14 0.316 -0.249 L 44 46.116 V 84.81 L 11.854 71.822 V 47.199 z M 78.146 47.199 v 24.623 L 46 84.81 V 46.116 l 8.074 10.041 c 0.088 0.109 0.198 0.187 0.316 0.249 c 0.031 0.016 0.061 0.028 0.094 0.041 c 0.101 0.041 0.205 0.064 0.314 0.071 c 0.019 0.001 0.036 0.012 0.055 0.012 c 0.008 0 0.016 -0.005 0.024 -0.005 c 0.118 -0.003 0.237 -0.022 0.351 -0.068 L 78.146 47.199 z M 78.774 44.788 c -0.001 0 -0.002 0 -0.003 0.001 l -23.604 9.536 L 46.623 43.7 l 0.509 -0.205 l 31.701 -12.807 l 8.544 10.625 L 78.774 44.788 z" style="stroke: none; stroke-width: 1; stroke-dasharray: none; stroke-linecap: butt; stroke-linejoin: miter; stroke-miterlimit: 10; fill: rgb(255,255,255); fill-rule: nonzero; opacity: 1;" transform=" matrix(1 0 0 1 0 0) " stroke-linecap="round" />
</g>
</svg>