<svg xmlns="http://www.w3.org/2000/svg" xmlns:xlink="http://www.w3.org/1999/xlink" version="1.1" width="24" height="24" viewBox="0 0 256 256" xml:space="preserve">

<defs>
</defs>
<g style="stroke: none; stroke-width: 0; stroke-dasharray: none; stroke-linecap: butt; stroke-linejoin: miter; stroke-miterlimit: 10; fill: none; fill-rule: nonzero; opacity: 1;" transform="translate(1.4065934065934016 1.4065934065934016) scale(2.81 2.81)" >
	<path d="M 89 69.138 H 77.481 V 37.844 c 0 -0.552 -0.447 -1 -1 -1 H 64.832 h -3.091 V 5.551 c 0 -0.552 -0.447 -1 -1 -1 H 49.092 h -8.183 H 29.259 c -0.552 0 -1 0.448 -1 1 v 31.293 h -3.091 H 13.519 c -0.552 0 -1 0.448 -1 1 v 31.293 H 1 c -0.552 0 -1 0.447 -1 1 v 7.819 c 0 0.553 0.448 1 1 1 h 7.847 v 5.492 c 0 0.553 0.448 1 1 1 h 14.591 c 0.552 0 1 -0.447 1 -1 v -5.492 h 39.125 v 5.492 c 0 0.553 0.447 1 1 1 h 14.591 c 0.553 0 1 -0.447 1 -1 v -5.492 H 89 c 0.553 0 1 -0.447 1 -1 v -7.819 C 90 69.585 89.553 69.138 89 69.138 z M 75.481 69.138 H 46 V 38.844 h 9.649 v 12.71 c 0 0.553 0.447 1 1 1 h 8.183 c 0.553 0 1 -0.447 1 -1 v -12.71 h 9.649 V 69.138 z M 63.832 50.555 h -6.183 v -11.71 h 3.092 h 3.091 V 50.555 z M 48.092 6.551 v 11.711 h -6.183 V 6.551 H 48.092 z M 30.259 6.551 h 9.649 v 12.711 c 0 0.552 0.448 1 1 1 h 8.183 c 0.553 0 1 -0.448 1 -1 V 6.551 h 9.649 v 30.293 h -3.092 H 45 H 33.351 h -3.091 V 6.551 z M 29.259 38.844 h 3.091 v 11.71 h -6.183 v -11.71 H 29.259 z M 14.519 38.844 h 9.649 v 12.71 c 0 0.553 0.448 1 1 1 h 8.183 c 0.552 0 1 -0.447 1 -1 v -12.71 H 44 v 30.293 H 14.519 V 38.844 z M 23.438 83.449 H 10.847 v -4.492 h 12.591 V 83.449 z M 79.153 83.449 H 66.563 v -4.492 h 12.591 V 83.449 z M 88 76.957 h -7.847 H 65.563 H 24.438 H 9.847 H 2 v -5.819 h 11.519 H 45 h 31.481 H 88 V 76.957 z" style="stroke: none; stroke-width: 1; stroke-dasharray: none; stroke-linecap: butt; stroke-linejoin: miter; stroke-miterlimit: 10; fill: rgb(255,255,255); fill-rule: nonzero; opacity: 1;" transform=" matrix(1 0 0 1 0 0) " stroke-linecap="round" />
</g>
</svg>